<svg width="1440" height="111" viewBox="0 0 1440 111" fill="none" xmlns="http://www.w3.org/2000/svg">
<g clip-path="url(#clip0_14_1888)">
<path d="M1495.38 0H720V111.011H1495.38V0Z" fill="white"/>
<path d="M775.386 0H720V55.5068H775.386V0Z" fill="#F0F3FD"/>
<path d="M720 55.5068C720 40.7855 725.835 26.6671 736.222 16.2576C746.609 5.84802 760.697 0 775.386 0V55.5068H720Z" fill="#D7DEFA"/>
<path d="M830.772 0H775.386V55.5068H830.772V0Z" fill="#FF6388"/>
<path d="M775.386 0H830.772L775.386 55.5068V0Z" fill="#FFCBD7"/>
<path d="M886.154 0H830.769V55.5056H886.154V0Z" fill="white"/>
<path d="M858.464 0H830.771V27.7534H858.464V0Z" fill="#BDC8F6"/>
<path d="M844.618 27.7534C852.265 27.7534 858.464 21.5406 858.464 13.8767C858.464 6.21281 852.265 0 844.618 0C836.971 0 830.771 6.21281 830.771 13.8767C830.771 21.5406 836.971 27.7534 844.618 27.7534Z" fill="#FF6489"/>
<path d="M886.157 0H858.464V27.7534H886.157V0Z" fill="#1940E1"/>
<path d="M886.157 0H858.464V27.7534H886.157V0Z" fill="#FF8BA6"/>
<path d="M858.464 27.7534H830.771V55.5068H858.464V27.7534Z" fill="#5673E9"/>
<path d="M844.618 55.5068C852.265 55.5068 858.464 49.294 858.464 41.6301C858.464 33.9662 852.265 27.7534 844.618 27.7534C836.971 27.7534 830.771 33.9662 830.771 41.6301C830.771 49.294 836.971 55.5068 844.618 55.5068Z" fill="#768DED"/>
<path d="M886.157 27.7534H858.464V55.5068H886.157V27.7534Z" fill="#DEE4FB"/>
<path d="M886.157 27.7534H858.464V55.5068H886.157V27.7534Z" fill="#8DA0F0"/>
<path d="M941.538 0H886.154V55.5056H941.538V0Z" fill="white"/>
<path d="M913.85 0H886.157V27.7534H913.85V0Z" fill="#FFC5D3"/>
<path d="M900.004 27.7534C907.651 27.7534 913.85 21.5406 913.85 13.8767C913.85 6.21281 907.651 0 900.004 0C892.356 0 886.157 6.21281 886.157 13.8767C886.157 21.5406 892.356 27.7534 900.004 27.7534Z" fill="#FF9FB6"/>
<path d="M941.536 0H913.843V27.7534H941.536V0Z" fill="#3759E5"/>
<path d="M941.536 0H913.843V27.7534H941.536V0Z" fill="#FF4974"/>
<path d="M913.85 27.7534H886.157V55.5068H913.85V27.7534Z" fill="#BDC8F6"/>
<path d="M900.004 55.5068C907.651 55.5068 913.85 49.294 913.85 41.6301C913.85 33.9662 907.651 27.7534 900.004 27.7534C892.356 27.7534 886.157 33.9662 886.157 41.6301C886.157 49.294 892.356 55.5068 900.004 55.5068Z" fill="#7E93EE"/>
<path d="M941.536 27.7534H913.843V55.5068H941.536V27.7534Z" fill="#FFA9BD"/>
<path d="M941.536 27.7534H913.843V55.5068H941.536V27.7534Z" fill="#FFA3B9"/>
<path d="M996.923 0H941.539V55.5056H996.923V0Z" fill="white"/>
<path d="M969.229 0H941.536V27.7534H969.229V0Z" fill="#FF7696"/>
<path d="M969.229 0V27.7534H941.536L969.229 0Z" fill="#FF406E"/>
<path d="M996.921 0H969.229V27.7534H996.921V0Z" fill="#A9B8F4"/>
<path d="M969.229 0L996.921 27.7534H969.229V0Z" fill="#FF6B8E"/>
<path d="M969.229 27.7534H941.536V55.5068H969.229V27.7534Z" fill="#FF3666"/>
<path d="M941.536 27.7534H969.229V55.5068L941.536 27.7534Z" fill="#FF7999"/>
<path d="M996.921 27.7534H969.229V55.5068H996.921V27.7534Z" fill="#FF8CA7"/>
<path d="M969.229 27.7534H996.921L969.229 55.5068V27.7534Z" fill="#3255E4"/>
<path d="M1052.31 0H996.923V55.5056H1052.31V0Z" fill="white"/>
<path d="M1024.61 0H996.921V27.7534H1024.61V0Z" fill="#526FE8"/>
<path d="M1010.77 27.7534C1018.42 27.7534 1024.61 21.5406 1024.61 13.8767C1024.61 6.21281 1018.42 0 1010.77 0C1003.12 0 996.921 6.21281 996.921 13.8767C996.921 21.5406 1003.12 27.7534 1010.77 27.7534Z" fill="#FFBFCF"/>
<path d="M1052.31 0H1024.61V27.7534H1052.31V0Z" fill="#FFEAEF"/>
<path d="M1052.31 0H1024.61V27.7534H1052.31V0Z" fill="#5975E9"/>
<path d="M1024.61 27.7534H996.921V55.5068H1024.61V27.7534Z" fill="#FAFBFE"/>
<path d="M1010.77 55.5068C1018.42 55.5068 1024.61 49.294 1024.61 41.6301C1024.61 33.9662 1018.42 27.7534 1010.77 27.7534C1003.12 27.7534 996.921 33.9662 996.921 41.6301C996.921 49.294 1003.12 55.5068 1010.77 55.5068Z" fill="#4867E7"/>
<path d="M1052.31 27.7534H1024.61V55.5068H1052.31V27.7534Z" fill="#EFF1FD"/>
<path d="M1052.31 27.7534H1024.61V55.5068H1052.31V27.7534Z" fill="#385AE5"/>
<path d="M1107.69 0H1052.31V55.5068H1107.69V0Z" fill="#7F95EE"/>
<path d="M1052.31 55.5068C1052.31 40.7855 1058.14 26.6671 1068.53 16.2576C1078.92 5.84802 1093 0 1107.69 0L1052.31 55.5068C1067 55.5068 1081.08 49.6588 1091.47 39.2492C1101.86 28.8397 1107.69 14.7213 1107.69 0" fill="#5C77EA"/>
<path d="M1163.08 0H1107.69V55.5068H1163.08V0Z" fill="#6D86EC"/>
<path d="M1107.69 0L1163.08 55.5068H1107.69V0Z" fill="#8CA0F0"/>
<path d="M1218.46 0H1163.08V55.5068H1218.46V0Z" fill="#FF688C"/>
<path d="M1163.08 0C1177.77 0 1191.86 5.84802 1202.24 16.2576C1212.63 26.6671 1218.46 40.7855 1218.46 55.5068H1163.08V0Z" fill="#FFC5D3"/>
<path d="M1273.85 0H1218.46V55.5056H1273.85V0Z" fill="white"/>
<path d="M1246.16 0H1218.46V27.7534H1246.16V0Z" fill="#FFD2DD"/>
<path d="M1218.46 27.7534C1218.46 20.3927 1221.38 13.3336 1226.58 8.12878C1231.77 2.92401 1238.81 0 1246.16 0V27.7534H1218.46Z" fill="#889CEF"/>
<path d="M1273.85 0H1246.16V27.7534H1273.85V0Z" fill="#FF82A0"/>
<path d="M1246.16 0C1253.5 0 1260.55 2.92401 1265.74 8.12878C1270.93 13.3336 1273.85 20.3927 1273.85 27.7534H1246.16V0Z" fill="#EDF0FD"/>
<path d="M1246.16 27.7534H1218.46V55.5068H1246.16V27.7534Z" fill="#7990EE"/>
<path d="M1218.46 27.7534C1218.46 35.1141 1221.38 42.1732 1226.58 47.378C1231.77 52.5828 1238.81 55.5068 1246.16 55.5068V27.7534H1218.46Z" fill="#EEF1FD"/>
<path d="M1273.85 27.7534H1246.16V55.5068H1273.85V27.7534Z" fill="#738AED"/>
<path d="M1246.16 55.5068C1253.5 55.5068 1260.55 52.5828 1265.74 47.378C1270.93 42.1732 1273.85 35.1141 1273.85 27.7534H1246.16V55.5068Z" fill="#4E6CE8"/>
<path d="M1329.23 0H1273.84V55.5068H1329.23V0Z" fill="#9EAEF2"/>
<path d="M1329.23 0V55.5068H1273.84L1329.23 0Z" fill="#5A76EA"/>
<path d="M1384.61 0H1329.23V55.5068H1384.61V0Z" fill="#FFC9D6"/>
<path d="M1329.23 0C1343.92 0 1358.01 5.84802 1368.39 16.2576C1378.78 26.6671 1384.61 40.7855 1384.61 55.5068L1329.23 0C1329.23 14.7213 1335.06 28.8397 1345.45 39.2492C1355.84 49.6588 1369.93 55.5068 1384.61 55.5068" fill="#5A76EA"/>
<path d="M1440 0H1384.61V55.5068H1440V0Z" fill="#FFA2B8"/>
<path d="M1384.61 0C1399.3 0 1413.39 5.84802 1423.78 16.2576C1434.16 26.6671 1440 40.7855 1440 55.5068L1384.61 0C1384.61 14.7213 1390.45 28.8397 1400.84 39.2492C1411.22 49.6588 1425.31 55.5068 1440 55.5068" fill="#EDF0FD"/>
<path d="M775.386 55.5068H720V111.014H775.386V55.5068Z" fill="#FFCAD7"/>
<path d="M720 55.5068C734.689 55.5068 748.777 61.3548 759.164 71.7644C769.551 82.1739 775.386 96.2923 775.386 111.014H720V55.5068Z" fill="#FFE4EA"/>
<path d="M830.769 55.5056H775.385V111.011H830.769V55.5056Z" fill="white"/>
<path d="M803.079 55.5068H775.386V83.2602H803.079V55.5068Z" fill="#FF7A99"/>
<path d="M789.232 83.2602C796.879 83.2602 803.079 77.0474 803.079 69.3835C803.079 61.7196 796.879 55.5068 789.232 55.5068C781.585 55.5068 775.386 61.7196 775.386 69.3835C775.386 77.0474 781.585 83.2602 789.232 83.2602Z" fill="#FFDCE5"/>
<path d="M830.772 55.5068H803.079V83.2602H830.772V55.5068Z" fill="#3255E4"/>
<path d="M830.772 55.5068H803.079V83.2602H830.772V55.5068Z" fill="#3C5DE6"/>
<path d="M803.079 83.2602H775.386V111.014H803.079V83.2602Z" fill="#4F6CE8"/>
<path d="M789.232 111.014C796.879 111.014 803.079 104.801 803.079 97.1369C803.079 89.473 796.879 83.2602 789.232 83.2602C781.585 83.2602 775.386 89.473 775.386 97.1369C775.386 104.801 781.585 111.014 789.232 111.014Z" fill="#657FEB"/>
<path d="M830.772 83.2602H803.079V111.014H830.772V83.2602Z" fill="#FF6086"/>
<path d="M830.772 83.2602H803.079V111.014H830.772V83.2602Z" fill="#1E44E2"/>
<path d="M886.157 55.5068H830.771V111.014H886.157V55.5068Z" fill="#FF97B0"/>
<path d="M886.157 55.5068H830.771V111.014H886.157V55.5068Z" fill="#6F87EC"/>
<path d="M941.538 55.5056H886.154V111.011H941.538V55.5056Z" fill="white"/>
<path d="M913.85 55.5068H886.157V83.2602H913.85V55.5068Z" fill="#FFCCD8"/>
<path d="M913.85 55.5068V83.2602H886.157L913.85 55.5068Z" fill="#FF90AA"/>
<path d="M941.536 55.5068H913.843V83.2602H941.536V55.5068Z" fill="#FF406D"/>
<path d="M913.843 55.5068H941.536L913.843 83.2602V55.5068Z" fill="#FF4974"/>
<path d="M913.85 83.2602H886.157V111.014H913.85V83.2602Z" fill="#FAFBFE"/>
<path d="M886.157 83.2602H913.85V111.014L886.157 83.2602Z" fill="#FF5F85"/>
<path d="M941.536 83.2602H913.843V111.014H941.536V83.2602Z" fill="#FF83A0"/>
<path d="M913.843 83.2602L941.536 111.014H913.843V83.2602Z" fill="#FF4D77"/>
<path d="M996.923 55.5056H941.539V111.011H996.923V55.5056Z" fill="white"/>
<path d="M969.229 55.5068H941.536V83.2602H969.229V55.5068Z" fill="#748BED"/>
<path d="M941.536 83.2602C941.536 75.8995 944.453 68.8404 949.647 63.6356C954.84 58.4308 961.884 55.5068 969.229 55.5068V83.2602H941.536Z" fill="#3C5DE6"/>
<path d="M996.921 55.5068H969.229V83.2602H996.921V55.5068Z" fill="#8599EF"/>
<path d="M969.229 55.5068C976.573 55.5068 983.617 58.4308 988.81 63.6356C994.004 68.8404 996.921 75.8995 996.921 83.2602H969.229V55.5068Z" fill="#4564E7"/>
<path d="M969.229 83.2602H941.536V111.014H969.229V83.2602Z" fill="#FF5C82"/>
<path d="M941.536 83.2602C941.536 90.6209 944.453 97.68 949.647 102.885C954.84 108.09 961.884 111.014 969.229 111.014V83.2602H941.536Z" fill="#FF5F85"/>
<path d="M996.921 83.2602H969.229V111.014H996.921V83.2602Z" fill="#7C92EE"/>
<path d="M969.229 111.014C976.573 111.014 983.617 108.09 988.81 102.885C994.004 97.68 996.921 90.6209 996.921 83.2602H969.229V111.014Z" fill="#FF3A69"/>
<path d="M1052.31 55.5068H996.921V111.014H1052.31V55.5068Z" fill="#FFBBCB"/>
<path d="M996.921 55.5068H1052.31L996.921 111.014V55.5068Z" fill="#F2F4FD"/>
<path d="M1107.69 55.5056H1052.31V111.011H1107.69V55.5056Z" fill="white"/>
<path d="M1080 55.5068H1052.31V83.2602H1080V55.5068Z" fill="#FF6489"/>
<path d="M1080 55.5068V83.2602H1052.31L1080 55.5068Z" fill="#BEC9F7"/>
<path d="M1107.69 55.5068H1080V83.2602H1107.69V55.5068Z" fill="#FFECF1"/>
<path d="M1080 55.5068L1107.69 83.2602H1080V55.5068Z" fill="#C5CFF8"/>
<path d="M1080 83.2602H1052.31V111.014H1080V83.2602Z" fill="#FFDFE7"/>
<path d="M1052.31 83.2602H1080L1052.31 111.014V83.2602Z" fill="#EEF1FD"/>
<path d="M1107.69 83.2602H1080V111.014H1107.69V83.2602Z" fill="#6F88EC"/>
<path d="M1080 83.2602H1107.69V111.014L1080 83.2602Z" fill="#9AABF2"/>
<path d="M1163.08 55.5056H1107.69V111.011H1163.08V55.5056Z" fill="white"/>
<path d="M1135.39 55.5068H1107.69V83.2602H1135.39V55.5068Z" fill="#E9EDFC"/>
<path d="M1121.54 83.2602C1129.19 83.2602 1135.39 77.0474 1135.39 69.3835C1135.39 61.7196 1129.19 55.5068 1121.54 55.5068C1113.89 55.5068 1107.69 61.7196 1107.69 69.3835C1107.69 77.0474 1113.89 83.2602 1121.54 83.2602Z" fill="#5774E9"/>
<path d="M1163.08 55.5068H1135.39V83.2602H1163.08V55.5068Z" fill="#FFF0F4"/>
<path d="M1163.08 55.5068H1135.39V83.2602H1163.08V55.5068Z" fill="#C6CFF8"/>
<path d="M1135.39 83.2602H1107.69V111.014H1135.39V83.2602Z" fill="#EEF1FD"/>
<path d="M1121.54 111.014C1129.19 111.014 1135.39 104.801 1135.39 97.1369C1135.39 89.473 1129.19 83.2602 1121.54 83.2602C1113.89 83.2602 1107.69 89.473 1107.69 97.1369C1107.69 104.801 1113.89 111.014 1121.54 111.014Z" fill="#8FA2F0"/>
<path d="M1163.08 83.2602H1135.39V111.014H1163.08V83.2602Z" fill="#FFE7ED"/>
<path d="M1163.08 83.2602H1135.39V111.014H1163.08V83.2602Z" fill="#FFA7BC"/>
<path d="M1218.46 55.5056H1163.08V111.011H1218.46V55.5056Z" fill="white"/>
<path d="M1190.77 55.5068H1163.08V83.2602H1190.77V55.5068Z" fill="#FFEAEF"/>
<path d="M1163.08 55.5068C1163.08 62.8675 1166 69.9266 1171.19 75.1314C1176.38 80.3362 1183.43 83.2602 1190.77 83.2602V55.5068H1163.08Z" fill="#FF98B0"/>
<path d="M1218.46 55.5068H1190.77V83.2602H1218.46V55.5068Z" fill="#F6F7FE"/>
<path d="M1190.77 83.2602C1198.12 83.2602 1205.16 80.3362 1210.35 75.1314C1215.55 69.9266 1218.46 62.8675 1218.46 55.5068H1190.77V83.2602Z" fill="#5773E9"/>
<path d="M1190.77 83.2602H1163.08V111.014H1190.77V83.2602Z" fill="#E8ECFC"/>
<path d="M1163.08 111.014C1163.08 103.653 1166 96.5937 1171.19 91.389C1176.38 86.1842 1183.43 83.2602 1190.77 83.2602V111.014H1163.08Z" fill="#FFFEFF"/>
<path d="M1218.46 83.2602H1190.77V111.014H1218.46V83.2602Z" fill="#FF94AE"/>
<path d="M1190.77 83.2602C1198.12 83.2602 1205.16 86.1842 1210.35 91.389C1215.55 96.5937 1218.46 103.653 1218.46 111.014H1190.77V83.2602Z" fill="#FF9FB6"/>
<path d="M1273.85 55.5056H1218.46V111.011H1273.85V55.5056Z" fill="white"/>
<path d="M1246.16 55.5068H1218.46V83.2602H1246.16V55.5068Z" fill="#FFC6D4"/>
<path d="M1232.31 83.2602C1239.96 83.2602 1246.16 77.0474 1246.16 69.3835C1246.16 61.7196 1239.96 55.5068 1232.31 55.5068C1224.66 55.5068 1218.46 61.7196 1218.46 69.3835C1218.46 77.0474 1224.66 83.2602 1232.31 83.2602Z" fill="#4867E7"/>
<path d="M1273.85 55.5068H1246.16V83.2602H1273.85V55.5068Z" fill="#FF4571"/>
<path d="M1273.85 55.5068H1246.16V83.2602H1273.85V55.5068Z" fill="#ECEFFC"/>
<path d="M1246.16 83.2602H1218.46V111.014H1246.16V83.2602Z" fill="#DFE4FB"/>
<path d="M1232.31 111.014C1239.96 111.014 1246.16 104.801 1246.16 97.1369C1246.16 89.473 1239.96 83.2602 1232.31 83.2602C1224.66 83.2602 1218.46 89.473 1218.46 97.1369C1218.46 104.801 1224.66 111.014 1232.31 111.014Z" fill="#9CACF2"/>
<path d="M1273.85 83.2602H1246.16V111.014H1273.85V83.2602Z" fill="#788EED"/>
<path d="M1273.85 83.2602H1246.16V111.014H1273.85V83.2602Z" fill="#91A4F1"/>
<path d="M1329.23 55.5068H1273.84V111.014H1329.23V55.5068Z" fill="#FF8FAA"/>
<path d="M1273.84 111.014C1273.84 96.2923 1279.68 82.1739 1290.06 71.7644C1300.45 61.3548 1314.54 55.5068 1329.23 55.5068V111.014H1273.84Z" fill="#96A8F1"/>
<path d="M1384.62 55.5056H1329.23V111.011H1384.62V55.5056Z" fill="white"/>
<path d="M1356.92 55.5068H1329.23V83.2602H1356.92V55.5068Z" fill="#FF8DA8"/>
<path d="M1356.92 55.5068V83.2602H1329.23L1356.92 55.5068Z" fill="#FF96AF"/>
<path d="M1384.61 55.5068H1356.92V83.2602H1384.61V55.5068Z" fill="#FFDAE3"/>
<path d="M1356.92 55.5068L1384.61 83.2602H1356.92V55.5068Z" fill="#FF4471"/>
<path d="M1356.92 83.2602H1329.23V111.014H1356.92V83.2602Z" fill="#CED6F9"/>
<path d="M1329.23 83.2602H1356.92L1329.23 111.014V83.2602Z" fill="#FFC7D4"/>
<path d="M1384.61 83.2602H1356.92V111.014H1384.61V83.2602Z" fill="#FF4F78"/>
<path d="M1356.92 83.2602H1384.61V111.014L1356.92 83.2602Z" fill="#E3E8FB"/>
<path d="M1440 55.5056H1384.62V111.011H1440V55.5056Z" fill="white"/>
<path d="M1412.31 55.5068H1384.61V83.2602H1412.31V55.5068Z" fill="#1E44E2"/>
<path d="M1384.61 83.2602C1391.96 83.2602 1399 80.3362 1404.2 75.1314C1409.39 69.9266 1412.31 62.8675 1412.31 55.5068H1384.61V83.2602Z" fill="#FF6086"/>
<path d="M1440 55.5068H1412.31V83.2602H1440V55.5068Z" fill="#FF3565"/>
<path d="M1412.31 55.5068C1412.31 62.8675 1415.22 69.9266 1420.42 75.1314C1425.61 80.3362 1432.66 83.2602 1440 83.2602V55.5068H1412.31Z" fill="#FEFEFF"/>
<path d="M1412.31 83.2602H1384.61V111.014H1412.31V83.2602Z" fill="#C4CEF7"/>
<path d="M1384.61 83.2602C1391.96 83.2602 1399 86.1842 1404.2 91.389C1409.39 96.5937 1412.31 103.653 1412.31 111.014H1384.61V83.2602Z" fill="#264AE3"/>
<path d="M1440 83.2602H1412.31V111.014H1440V83.2602Z" fill="#FFB2C4"/>
<path d="M1412.31 111.014C1412.31 103.653 1415.22 96.5937 1420.42 91.389C1425.61 86.1842 1432.66 83.2602 1440 83.2602V111.014H1412.31Z" fill="#FFFCFD"/>
</g>
<g clip-path="url(#clip1_14_1888)">
<path d="M775.385 0H0V111.011H775.385V0Z" fill="white"/>
<path d="M55.3858 0H0V55.5068H55.3858V0Z" fill="#F0F3FD"/>
<path d="M0 55.5068C0 40.7855 5.83527 26.6671 16.2221 16.2576C26.609 5.84802 40.6966 0 55.3858 0V55.5068H0Z" fill="#D7DEFA"/>
<path d="M110.772 0H55.3857V55.5068H110.772V0Z" fill="#FF6388"/>
<path d="M55.3857 0H110.772L55.3857 55.5068V0Z" fill="#FFCBD7"/>
<path d="M166.154 0H110.769V55.5056H166.154V0Z" fill="white"/>
<path d="M138.464 0H110.772V27.7534H138.464V0Z" fill="#BDC8F6"/>
<path d="M124.618 27.7534C132.265 27.7534 138.464 21.5406 138.464 13.8767C138.464 6.21281 132.265 0 124.618 0C116.971 0 110.772 6.21281 110.772 13.8767C110.772 21.5406 116.971 27.7534 124.618 27.7534Z" fill="#FF6489"/>
<path d="M166.157 0H138.464V27.7534H166.157V0Z" fill="#1940E1"/>
<path d="M166.157 0H138.464V27.7534H166.157V0Z" fill="#FF8BA6"/>
<path d="M138.464 27.7534H110.772V55.5068H138.464V27.7534Z" fill="#5673E9"/>
<path d="M124.618 55.5068C132.265 55.5068 138.464 49.294 138.464 41.6301C138.464 33.9662 132.265 27.7534 124.618 27.7534C116.971 27.7534 110.772 33.9662 110.772 41.6301C110.772 49.294 116.971 55.5068 124.618 55.5068Z" fill="#768DED"/>
<path d="M166.157 27.7534H138.464V55.5068H166.157V27.7534Z" fill="#DEE4FB"/>
<path d="M166.157 27.7534H138.464V55.5068H166.157V27.7534Z" fill="#8DA0F0"/>
<path d="M221.538 0H166.154V55.5056H221.538V0Z" fill="white"/>
<path d="M193.85 0H166.157V27.7534H193.85V0Z" fill="#FFC5D3"/>
<path d="M180.004 27.7534C187.651 27.7534 193.85 21.5406 193.85 13.8767C193.85 6.21281 187.651 0 180.004 0C172.357 0 166.157 6.21281 166.157 13.8767C166.157 21.5406 172.357 27.7534 180.004 27.7534Z" fill="#FF9FB6"/>
<path d="M221.536 0H193.843V27.7534H221.536V0Z" fill="#3759E5"/>
<path d="M221.536 0H193.843V27.7534H221.536V0Z" fill="#FF4974"/>
<path d="M193.85 27.7534H166.157V55.5068H193.85V27.7534Z" fill="#BDC8F6"/>
<path d="M180.004 55.5068C187.651 55.5068 193.85 49.294 193.85 41.6301C193.85 33.9662 187.651 27.7534 180.004 27.7534C172.357 27.7534 166.157 33.9662 166.157 41.6301C166.157 49.294 172.357 55.5068 180.004 55.5068Z" fill="#7E93EE"/>
<path d="M221.536 27.7534H193.843V55.5068H221.536V27.7534Z" fill="#FFA9BD"/>
<path d="M221.536 27.7534H193.843V55.5068H221.536V27.7534Z" fill="#FFA3B9"/>
<path d="M276.923 0H221.538V55.5056H276.923V0Z" fill="white"/>
<path d="M249.228 0H221.536V27.7534H249.228V0Z" fill="#FF7696"/>
<path d="M249.228 0V27.7534H221.536L249.228 0Z" fill="#FF406E"/>
<path d="M276.921 0H249.229V27.7534H276.921V0Z" fill="#A9B8F4"/>
<path d="M249.229 0L276.921 27.7534H249.229V0Z" fill="#FF6B8E"/>
<path d="M249.228 27.7534H221.536V55.5068H249.228V27.7534Z" fill="#FF3666"/>
<path d="M221.536 27.7534H249.228V55.5068L221.536 27.7534Z" fill="#FF7999"/>
<path d="M276.921 27.7534H249.229V55.5068H276.921V27.7534Z" fill="#FF8CA7"/>
<path d="M249.229 27.7534H276.921L249.229 55.5068V27.7534Z" fill="#3255E4"/>
<path d="M332.308 0H276.923V55.5056H332.308V0Z" fill="white"/>
<path d="M304.614 0H276.921V27.7534H304.614V0Z" fill="#526FE8"/>
<path d="M290.768 27.7534C298.415 27.7534 304.614 21.5406 304.614 13.8767C304.614 6.21281 298.415 0 290.768 0C283.121 0 276.921 6.21281 276.921 13.8767C276.921 21.5406 283.121 27.7534 290.768 27.7534Z" fill="#FFBFCF"/>
<path d="M332.307 0H304.614V27.7534H332.307V0Z" fill="#FFEAEF"/>
<path d="M332.307 0H304.614V27.7534H332.307V0Z" fill="#5975E9"/>
<path d="M304.614 27.7534H276.921V55.5068H304.614V27.7534Z" fill="#FAFBFE"/>
<path d="M290.768 55.5068C298.415 55.5068 304.614 49.294 304.614 41.6301C304.614 33.9662 298.415 27.7534 290.768 27.7534C283.121 27.7534 276.921 33.9662 276.921 41.6301C276.921 49.294 283.121 55.5068 290.768 55.5068Z" fill="#4867E7"/>
<path d="M332.307 27.7534H304.614V55.5068H332.307V27.7534Z" fill="#EFF1FD"/>
<path d="M332.307 27.7534H304.614V55.5068H332.307V27.7534Z" fill="#385AE5"/>
<path d="M387.693 0H332.307V55.5068H387.693V0Z" fill="#7F95EE"/>
<path d="M332.307 55.5068C332.307 40.7855 338.142 26.6671 348.529 16.2576C358.916 5.84802 373.004 0 387.693 0L332.307 55.5068C346.996 55.5068 361.084 49.6588 371.471 39.2492C381.858 28.8397 387.693 14.7213 387.693 0" fill="#5C77EA"/>
<path d="M443.079 0H387.693V55.5068H443.079V0Z" fill="#6D86EC"/>
<path d="M387.693 0L443.079 55.5068H387.693V0Z" fill="#8CA0F0"/>
<path d="M498.464 0H443.079V55.5068H498.464V0Z" fill="#FF688C"/>
<path d="M443.079 0C457.768 0 471.855 5.84802 482.242 16.2576C492.629 26.6671 498.464 40.7855 498.464 55.5068H443.079V0Z" fill="#FFC5D3"/>
<path d="M553.846 0H498.462V55.5056H553.846V0Z" fill="white"/>
<path d="M526.157 0H498.464V27.7534H526.157V0Z" fill="#FFD2DD"/>
<path d="M498.464 27.7534C498.464 20.3927 501.382 13.3336 506.575 8.12878C511.769 2.92401 518.813 0 526.157 0V27.7534H498.464Z" fill="#889CEF"/>
<path d="M553.85 0H526.157V27.7534H553.85V0Z" fill="#FF82A0"/>
<path d="M526.157 0C533.502 0 540.546 2.92401 545.739 8.12878C550.933 13.3336 553.85 20.3927 553.85 27.7534H526.157V0Z" fill="#EDF0FD"/>
<path d="M526.157 27.7534H498.464V55.5068H526.157V27.7534Z" fill="#7990EE"/>
<path d="M498.464 27.7534C498.464 35.1141 501.382 42.1732 506.575 47.378C511.769 52.5828 518.813 55.5068 526.157 55.5068V27.7534H498.464Z" fill="#EEF1FD"/>
<path d="M553.85 27.7534H526.157V55.5068H553.85V27.7534Z" fill="#738AED"/>
<path d="M526.157 55.5068C533.502 55.5068 540.546 52.5828 545.739 47.378C550.933 42.1732 553.85 35.1141 553.85 27.7534H526.157V55.5068Z" fill="#4E6CE8"/>
<path d="M609.228 0H553.843V55.5068H609.228V0Z" fill="#9EAEF2"/>
<path d="M609.228 0V55.5068H553.843L609.228 0Z" fill="#5A76EA"/>
<path d="M664.614 0H609.229V55.5068H664.614V0Z" fill="#FFC9D6"/>
<path d="M609.229 0C623.918 0 638.005 5.84802 648.392 16.2576C658.779 26.6671 664.614 40.7855 664.614 55.5068L609.229 0C609.229 14.7213 615.064 28.8397 625.451 39.2492C635.837 49.6588 649.925 55.5068 664.614 55.5068" fill="#5A76EA"/>
<path d="M720 0H664.614V55.5068H720V0Z" fill="#FFA2B8"/>
<path d="M664.614 0C679.303 0 693.391 5.84802 703.778 16.2576C714.165 26.6671 720 40.7855 720 55.5068L664.614 0C664.614 14.7213 670.45 28.8397 680.836 39.2492C691.223 49.6588 705.311 55.5068 720 55.5068" fill="#EDF0FD"/>
<path d="M55.3858 55.5068H0V111.014H55.3858V55.5068Z" fill="#FFCAD7"/>
<path d="M0 55.5068C14.6892 55.5068 28.7768 61.3548 39.1637 71.7644C49.5505 82.1739 55.3858 96.2923 55.3858 111.014H0V55.5068Z" fill="#FFE4EA"/>
<path d="M110.769 55.5056H55.3846V111.011H110.769V55.5056Z" fill="white"/>
<path d="M83.0786 55.5068H55.3857V83.2602H83.0786V55.5068Z" fill="#FF7A99"/>
<path d="M69.2322 83.2602C76.8794 83.2602 83.0786 77.0474 83.0786 69.3835C83.0786 61.7196 76.8794 55.5068 69.2322 55.5068C61.585 55.5068 55.3857 61.7196 55.3857 69.3835C55.3857 77.0474 61.585 83.2602 69.2322 83.2602Z" fill="#FFDCE5"/>
<path d="M110.772 55.5068H83.0786V83.2602H110.772V55.5068Z" fill="#3255E4"/>
<path d="M110.772 55.5068H83.0786V83.2602H110.772V55.5068Z" fill="#3C5DE6"/>
<path d="M83.0786 83.2602H55.3857V111.014H83.0786V83.2602Z" fill="#4F6CE8"/>
<path d="M69.2322 111.014C76.8794 111.014 83.0786 104.801 83.0786 97.1369C83.0786 89.473 76.8794 83.2602 69.2322 83.2602C61.585 83.2602 55.3857 89.473 55.3857 97.1369C55.3857 104.801 61.585 111.014 69.2322 111.014Z" fill="#657FEB"/>
<path d="M110.772 83.2602H83.0786V111.014H110.772V83.2602Z" fill="#FF6086"/>
<path d="M110.772 83.2602H83.0786V111.014H110.772V83.2602Z" fill="#1E44E2"/>
<path d="M166.157 55.5068H110.772V111.014H166.157V55.5068Z" fill="#FF97B0"/>
<path d="M166.157 55.5068H110.772V111.014H166.157V55.5068Z" fill="#6F87EC"/>
<path d="M221.538 55.5056H166.154V111.011H221.538V55.5056Z" fill="white"/>
<path d="M193.85 55.5068H166.157V83.2602H193.85V55.5068Z" fill="#FFCCD8"/>
<path d="M193.85 55.5068V83.2602H166.157L193.85 55.5068Z" fill="#FF90AA"/>
<path d="M221.536 55.5068H193.843V83.2602H221.536V55.5068Z" fill="#FF406D"/>
<path d="M193.843 55.5068H221.536L193.843 83.2602V55.5068Z" fill="#FF4974"/>
<path d="M193.85 83.2602H166.157V111.014H193.85V83.2602Z" fill="#FAFBFE"/>
<path d="M166.157 83.2602H193.85V111.014L166.157 83.2602Z" fill="#FF5F85"/>
<path d="M221.536 83.2602H193.843V111.014H221.536V83.2602Z" fill="#FF83A0"/>
<path d="M193.843 83.2602L221.536 111.014H193.843V83.2602Z" fill="#FF4D77"/>
<path d="M276.923 55.5056H221.538V111.011H276.923V55.5056Z" fill="white"/>
<path d="M249.228 55.5068H221.536V83.2602H249.228V55.5068Z" fill="#748BED"/>
<path d="M221.536 83.2602C221.536 75.8995 224.453 68.8404 229.647 63.6356C234.84 58.4308 241.884 55.5068 249.228 55.5068V83.2602H221.536Z" fill="#3C5DE6"/>
<path d="M276.921 55.5068H249.229V83.2602H276.921V55.5068Z" fill="#8599EF"/>
<path d="M249.229 55.5068C256.573 55.5068 263.617 58.4308 268.81 63.6356C274.004 68.8404 276.921 75.8995 276.921 83.2602H249.229V55.5068Z" fill="#4564E7"/>
<path d="M249.228 83.2602H221.536V111.014H249.228V83.2602Z" fill="#FF5C82"/>
<path d="M221.536 83.2602C221.536 90.6209 224.453 97.68 229.647 102.885C234.84 108.09 241.884 111.014 249.228 111.014V83.2602H221.536Z" fill="#FF5F85"/>
<path d="M276.921 83.2602H249.229V111.014H276.921V83.2602Z" fill="#7C92EE"/>
<path d="M249.229 111.014C256.573 111.014 263.617 108.09 268.81 102.885C274.004 97.68 276.921 90.6209 276.921 83.2602H249.229V111.014Z" fill="#FF3A69"/>
<path d="M332.307 55.5068H276.921V111.014H332.307V55.5068Z" fill="#FFBBCB"/>
<path d="M276.921 55.5068H332.307L276.921 111.014V55.5068Z" fill="#F2F4FD"/>
<path d="M387.692 55.5056H332.308V111.011H387.692V55.5056Z" fill="white"/>
<path d="M360 55.5068H332.307V83.2602H360V55.5068Z" fill="#FF6489"/>
<path d="M360 55.5068V83.2602H332.307L360 55.5068Z" fill="#BEC9F7"/>
<path d="M387.693 55.5068H360V83.2602H387.693V55.5068Z" fill="#FFECF1"/>
<path d="M360 55.5068L387.693 83.2602H360V55.5068Z" fill="#C5CFF8"/>
<path d="M360 83.2602H332.307V111.014H360V83.2602Z" fill="#FFDFE7"/>
<path d="M332.307 83.2602H360L332.307 111.014V83.2602Z" fill="#EEF1FD"/>
<path d="M387.693 83.2602H360V111.014H387.693V83.2602Z" fill="#6F88EC"/>
<path d="M360 83.2602H387.693V111.014L360 83.2602Z" fill="#9AABF2"/>
<path d="M443.077 55.5056H387.692V111.011H443.077V55.5056Z" fill="white"/>
<path d="M415.386 55.5068H387.693V83.2602H415.386V55.5068Z" fill="#E9EDFC"/>
<path d="M401.539 83.2602C409.187 83.2602 415.386 77.0474 415.386 69.3835C415.386 61.7196 409.187 55.5068 401.539 55.5068C393.892 55.5068 387.693 61.7196 387.693 69.3835C387.693 77.0474 393.892 83.2602 401.539 83.2602Z" fill="#5774E9"/>
<path d="M443.079 55.5068H415.386V83.2602H443.079V55.5068Z" fill="#FFF0F4"/>
<path d="M443.079 55.5068H415.386V83.2602H443.079V55.5068Z" fill="#C6CFF8"/>
<path d="M415.386 83.2602H387.693V111.014H415.386V83.2602Z" fill="#EEF1FD"/>
<path d="M401.539 111.014C409.187 111.014 415.386 104.801 415.386 97.1369C415.386 89.473 409.187 83.2602 401.539 83.2602C393.892 83.2602 387.693 89.473 387.693 97.1369C387.693 104.801 393.892 111.014 401.539 111.014Z" fill="#8FA2F0"/>
<path d="M443.079 83.2602H415.386V111.014H443.079V83.2602Z" fill="#FFE7ED"/>
<path d="M443.079 83.2602H415.386V111.014H443.079V83.2602Z" fill="#FFA7BC"/>
<path d="M498.462 55.5056H443.077V111.011H498.462V55.5056Z" fill="white"/>
<path d="M470.772 55.5068H443.079V83.2602H470.772V55.5068Z" fill="#FFEAEF"/>
<path d="M443.079 55.5068C443.079 62.8675 445.996 69.9266 451.19 75.1314C456.383 80.3362 463.427 83.2602 470.772 83.2602V55.5068H443.079Z" fill="#FF98B0"/>
<path d="M498.464 55.5068H470.772V83.2602H498.464V55.5068Z" fill="#F6F7FE"/>
<path d="M470.772 83.2602C478.116 83.2602 485.16 80.3362 490.353 75.1314C495.547 69.9266 498.464 62.8675 498.464 55.5068H470.772V83.2602Z" fill="#5773E9"/>
<path d="M470.772 83.2602H443.079V111.014H470.772V83.2602Z" fill="#E8ECFC"/>
<path d="M443.079 111.014C443.079 103.653 445.996 96.5937 451.19 91.389C456.383 86.1842 463.427 83.2602 470.772 83.2602V111.014H443.079Z" fill="#FFFEFF"/>
<path d="M498.464 83.2602H470.772V111.014H498.464V83.2602Z" fill="#FF94AE"/>
<path d="M470.772 83.2602C478.116 83.2602 485.16 86.1842 490.353 91.389C495.547 96.5937 498.464 103.653 498.464 111.014H470.772V83.2602Z" fill="#FF9FB6"/>
<path d="M553.846 55.5056H498.462V111.011H553.846V55.5056Z" fill="white"/>
<path d="M526.157 55.5068H498.464V83.2602H526.157V55.5068Z" fill="#FFC6D4"/>
<path d="M512.311 83.2602C519.958 83.2602 526.157 77.0474 526.157 69.3835C526.157 61.7196 519.958 55.5068 512.311 55.5068C504.664 55.5068 498.464 61.7196 498.464 69.3835C498.464 77.0474 504.664 83.2602 512.311 83.2602Z" fill="#4867E7"/>
<path d="M553.85 55.5068H526.157V83.2602H553.85V55.5068Z" fill="#FF4571"/>
<path d="M553.85 55.5068H526.157V83.2602H553.85V55.5068Z" fill="#ECEFFC"/>
<path d="M526.157 83.2602H498.464V111.014H526.157V83.2602Z" fill="#DFE4FB"/>
<path d="M512.311 111.014C519.958 111.014 526.157 104.801 526.157 97.1369C526.157 89.473 519.958 83.2602 512.311 83.2602C504.664 83.2602 498.464 89.473 498.464 97.1369C498.464 104.801 504.664 111.014 512.311 111.014Z" fill="#9CACF2"/>
<path d="M553.85 83.2602H526.157V111.014H553.85V83.2602Z" fill="#788EED"/>
<path d="M553.85 83.2602H526.157V111.014H553.85V83.2602Z" fill="#91A4F1"/>
<path d="M609.228 55.5068H553.843V111.014H609.228V55.5068Z" fill="#FF8FAA"/>
<path d="M553.843 111.014C553.843 96.2923 559.678 82.1739 570.065 71.7644C580.452 61.3548 594.539 55.5068 609.228 55.5068V111.014H553.843Z" fill="#96A8F1"/>
<path d="M664.615 55.5056H609.231V111.011H664.615V55.5056Z" fill="white"/>
<path d="M636.921 55.5068H609.229V83.2602H636.921V55.5068Z" fill="#FF8DA8"/>
<path d="M636.921 55.5068V83.2602H609.229L636.921 55.5068Z" fill="#FF96AF"/>
<path d="M664.614 55.5068H636.921V83.2602H664.614V55.5068Z" fill="#FFDAE3"/>
<path d="M636.921 55.5068L664.614 83.2602H636.921V55.5068Z" fill="#FF4471"/>
<path d="M636.921 83.2602H609.229V111.014H636.921V83.2602Z" fill="#CED6F9"/>
<path d="M609.229 83.2602H636.921L609.229 111.014V83.2602Z" fill="#FFC7D4"/>
<path d="M664.614 83.2602H636.921V111.014H664.614V83.2602Z" fill="#FF4F78"/>
<path d="M636.921 83.2602H664.614V111.014L636.921 83.2602Z" fill="#E3E8FB"/>
<path d="M720 55.5056H664.615V111.011H720V55.5056Z" fill="white"/>
<path d="M692.307 55.5068H664.614V83.2602H692.307V55.5068Z" fill="#1E44E2"/>
<path d="M664.614 83.2602C671.959 83.2602 679.003 80.3362 684.196 75.1314C689.39 69.9266 692.307 62.8675 692.307 55.5068H664.614V83.2602Z" fill="#FF6086"/>
<path d="M720 55.5068H692.307V83.2602H720V55.5068Z" fill="#FF3565"/>
<path d="M692.307 55.5068C692.307 62.8675 695.225 69.9266 700.418 75.1314C705.612 80.3362 712.655 83.2602 720 83.2602V55.5068H692.307Z" fill="#FEFEFF"/>
<path d="M692.307 83.2602H664.614V111.014H692.307V83.2602Z" fill="#C4CEF7"/>
<path d="M664.614 83.2602C671.959 83.2602 679.003 86.1842 684.196 91.389C689.39 96.5937 692.307 103.653 692.307 111.014H664.614V83.2602Z" fill="#264AE3"/>
<path d="M720 83.2602H692.307V111.014H720V83.2602Z" fill="#FFB2C4"/>
<path d="M692.307 111.014C692.307 103.653 695.225 96.5937 700.418 91.389C705.612 86.1842 712.655 83.2602 720 83.2602V111.014H692.307Z" fill="#FFFCFD"/>
</g>
<defs>
<clipPath id="clip0_14_1888">
<rect width="720" height="111" fill="white" transform="translate(720)"/>
</clipPath>
<clipPath id="clip1_14_1888">
<rect width="720" height="111" fill="white"/>
</clipPath>
</defs>
</svg>
